<mxfile host="app.diagrams.net" modified="2020-10-07T04:36:43.524Z" agent="5.0 (Macintosh; Intel Mac OS X 10_13_6) AppleWebKit/537.36 (KHTML, like Gecko) Chrome/85.0.4183.102 Safari/537.36" etag="8mJjICxbKgERnSMjlqyZ" version="13.7.6" type="github">
  <diagram id="Nw3A2sw1rG-FBsZ3vatD" name="Page-1">
    <mxGraphModel dx="1113" dy="1871" grid="1" gridSize="10" guides="1" tooltips="1" connect="1" arrows="1" fold="1" page="1" pageScale="1" pageWidth="827" pageHeight="1169" math="0" shadow="0">
      <root>
        <mxCell id="0" />
        <mxCell id="1" parent="0" />
        <mxCell id="5fxkcOZgIj8-exEb8mg5-103" value="" style="rounded=1;whiteSpace=wrap;html=1;dashed=1;fontSize=12;" vertex="1" parent="1">
          <mxGeometry y="-70" width="724.81" height="250" as="geometry" />
        </mxCell>
        <mxCell id="5fxkcOZgIj8-exEb8mg5-98" value="" style="rounded=0;whiteSpace=wrap;html=1;fontSize=12;dashed=1;fillColor=#f5f5f5;strokeColor=#666666;fontColor=#333333;" vertex="1" parent="1">
          <mxGeometry x="160.29" y="600" width="799.71" height="140" as="geometry" />
        </mxCell>
        <mxCell id="5fxkcOZgIj8-exEb8mg5-94" value="" style="rounded=0;whiteSpace=wrap;html=1;fontSize=12;dashed=1;fillColor=#f5f5f5;strokeColor=#666666;fontColor=#333333;" vertex="1" parent="1">
          <mxGeometry x="160.29" y="234.5" width="799.71" height="345.5" as="geometry" />
        </mxCell>
        <mxCell id="5fxkcOZgIj8-exEb8mg5-97" value="" style="rounded=0;whiteSpace=wrap;html=1;fontSize=12;dashed=1;" vertex="1" parent="1">
          <mxGeometry x="180" y="472.33" width="370" height="87" as="geometry" />
        </mxCell>
        <mxCell id="5fxkcOZgIj8-exEb8mg5-96" value="" style="rounded=0;whiteSpace=wrap;html=1;fontSize=12;dashed=1;" vertex="1" parent="1">
          <mxGeometry x="573.4999999999999" y="472.33000000000004" width="373" height="87" as="geometry" />
        </mxCell>
        <mxCell id="5fxkcOZgIj8-exEb8mg5-95" value="" style="rounded=0;whiteSpace=wrap;html=1;fontSize=12;dashed=1;" vertex="1" parent="1">
          <mxGeometry x="573.5" y="254.84" width="373" height="195.16" as="geometry" />
        </mxCell>
        <mxCell id="5fxkcOZgIj8-exEb8mg5-93" value="" style="rounded=0;whiteSpace=wrap;html=1;fontSize=12;dashed=1;" vertex="1" parent="1">
          <mxGeometry x="179.75" y="254.84" width="373" height="87" as="geometry" />
        </mxCell>
        <mxCell id="5fxkcOZgIj8-exEb8mg5-38" value="" style="rounded=1;whiteSpace=wrap;html=1;fontSize=12;" vertex="1" parent="1">
          <mxGeometry x="331.81" y="-50" width="363" height="210" as="geometry" />
        </mxCell>
        <mxCell id="5fxkcOZgIj8-exEb8mg5-13" value="" style="rounded=0;whiteSpace=wrap;html=1;fontSize=12;" vertex="1" parent="1">
          <mxGeometry x="344.81" width="210" height="30" as="geometry" />
        </mxCell>
        <mxCell id="5fxkcOZgIj8-exEb8mg5-32" style="edgeStyle=orthogonalEdgeStyle;rounded=0;orthogonalLoop=1;jettySize=auto;html=1;exitX=1;exitY=0.5;exitDx=0;exitDy=0;entryX=0;entryY=0.5;entryDx=0;entryDy=0;fontSize=12;" edge="1" parent="1" target="5fxkcOZgIj8-exEb8mg5-13">
          <mxGeometry relative="1" as="geometry">
            <mxPoint x="284.81" y="55" as="sourcePoint" />
          </mxGeometry>
        </mxCell>
        <mxCell id="5fxkcOZgIj8-exEb8mg5-33" style="edgeStyle=orthogonalEdgeStyle;rounded=0;orthogonalLoop=1;jettySize=auto;html=1;exitX=1;exitY=0.5;exitDx=0;exitDy=0;entryX=0;entryY=0.5;entryDx=0;entryDy=0;fontSize=12;" edge="1" parent="1" target="5fxkcOZgIj8-exEb8mg5-14">
          <mxGeometry relative="1" as="geometry">
            <mxPoint x="284.81" y="55" as="sourcePoint" />
          </mxGeometry>
        </mxCell>
        <mxCell id="5fxkcOZgIj8-exEb8mg5-34" style="edgeStyle=orthogonalEdgeStyle;rounded=0;orthogonalLoop=1;jettySize=auto;html=1;exitX=1;exitY=0.5;exitDx=0;exitDy=0;fontSize=12;" edge="1" parent="1" source="5fxkcOZgIj8-exEb8mg5-44" target="5fxkcOZgIj8-exEb8mg5-18">
          <mxGeometry relative="1" as="geometry">
            <mxPoint x="284.81" y="55" as="sourcePoint" />
            <Array as="points">
              <mxPoint x="314.81" y="55" />
              <mxPoint x="314.81" y="95" />
            </Array>
          </mxGeometry>
        </mxCell>
        <mxCell id="5fxkcOZgIj8-exEb8mg5-12" value="" style="group" vertex="1" connectable="0" parent="1">
          <mxGeometry x="394.81" width="160" height="30" as="geometry" />
        </mxCell>
        <mxCell id="5fxkcOZgIj8-exEb8mg5-10" value="socket" style="rounded=0;whiteSpace=wrap;html=1;fontSize=12;fillColor=#ffe6cc;strokeColor=#d79b00;" vertex="1" parent="5fxkcOZgIj8-exEb8mg5-12">
          <mxGeometry width="76.19047619047619" height="30" as="geometry" />
        </mxCell>
        <mxCell id="5fxkcOZgIj8-exEb8mg5-11" value="thread" style="rounded=0;whiteSpace=wrap;html=1;fontSize=12;fillColor=#dae8fc;strokeColor=#6c8ebf;" vertex="1" parent="5fxkcOZgIj8-exEb8mg5-12">
          <mxGeometry x="83.80952380952382" width="76.19047619047619" height="30" as="geometry" />
        </mxCell>
        <mxCell id="5fxkcOZgIj8-exEb8mg5-14" value="" style="rounded=0;whiteSpace=wrap;html=1;fontSize=12;" vertex="1" parent="1">
          <mxGeometry x="344.81" y="40" width="210" height="30" as="geometry" />
        </mxCell>
        <mxCell id="5fxkcOZgIj8-exEb8mg5-15" value="" style="group" vertex="1" connectable="0" parent="1">
          <mxGeometry x="394.81" y="40" width="160" height="30" as="geometry" />
        </mxCell>
        <mxCell id="5fxkcOZgIj8-exEb8mg5-16" value="socket" style="rounded=0;whiteSpace=wrap;html=1;fontSize=12;fillColor=#ffe6cc;strokeColor=#d79b00;" vertex="1" parent="5fxkcOZgIj8-exEb8mg5-15">
          <mxGeometry width="76.19047619047619" height="30" as="geometry" />
        </mxCell>
        <mxCell id="5fxkcOZgIj8-exEb8mg5-17" value="thread" style="rounded=0;whiteSpace=wrap;html=1;fontSize=12;fillColor=#dae8fc;strokeColor=#6c8ebf;" vertex="1" parent="5fxkcOZgIj8-exEb8mg5-15">
          <mxGeometry x="83.80952380952382" width="76.19047619047619" height="30" as="geometry" />
        </mxCell>
        <mxCell id="5fxkcOZgIj8-exEb8mg5-18" value="" style="rounded=0;whiteSpace=wrap;html=1;fontSize=12;" vertex="1" parent="1">
          <mxGeometry x="344.81" y="80" width="210" height="30" as="geometry" />
        </mxCell>
        <mxCell id="5fxkcOZgIj8-exEb8mg5-19" value="" style="group" vertex="1" connectable="0" parent="1">
          <mxGeometry x="394.81" y="80" width="160" height="30" as="geometry" />
        </mxCell>
        <mxCell id="5fxkcOZgIj8-exEb8mg5-20" value="socket" style="rounded=0;whiteSpace=wrap;html=1;fontSize=12;fillColor=#ffe6cc;strokeColor=#d79b00;" vertex="1" parent="5fxkcOZgIj8-exEb8mg5-19">
          <mxGeometry width="76.19047619047619" height="30" as="geometry" />
        </mxCell>
        <mxCell id="5fxkcOZgIj8-exEb8mg5-21" value="thread" style="rounded=0;whiteSpace=wrap;html=1;fontSize=12;fillColor=#dae8fc;strokeColor=#6c8ebf;" vertex="1" parent="5fxkcOZgIj8-exEb8mg5-19">
          <mxGeometry x="83.80952380952382" width="76.19047619047619" height="30" as="geometry" />
        </mxCell>
        <mxCell id="5fxkcOZgIj8-exEb8mg5-26" value="thread" style="rounded=0;whiteSpace=wrap;html=1;fontSize=12;fillColor=#dae8fc;strokeColor=#6c8ebf;" vertex="1" parent="1">
          <mxGeometry x="584.8095238095239" y="40" width="76.19047619047619" height="30" as="geometry" />
        </mxCell>
        <mxCell id="5fxkcOZgIj8-exEb8mg5-28" value="thread" style="rounded=0;whiteSpace=wrap;html=1;fontSize=12;fillColor=#dae8fc;strokeColor=#6c8ebf;" vertex="1" parent="1">
          <mxGeometry x="594.8095238095239" y="50" width="76.19047619047619" height="30" as="geometry" />
        </mxCell>
        <mxCell id="5fxkcOZgIj8-exEb8mg5-29" value="thread" style="rounded=0;whiteSpace=wrap;html=1;fontSize=12;fillColor=#dae8fc;strokeColor=#6c8ebf;" vertex="1" parent="1">
          <mxGeometry x="604.8095238095239" y="60" width="76.19047619047619" height="30" as="geometry" />
        </mxCell>
        <mxCell id="5fxkcOZgIj8-exEb8mg5-31" value="线程池" style="text;html=1;strokeColor=none;fillColor=none;align=center;verticalAlign=middle;whiteSpace=wrap;rounded=0;fontSize=12;" vertex="1" parent="1">
          <mxGeometry x="494.81" y="-40" width="40" height="20" as="geometry" />
        </mxCell>
        <mxCell id="5fxkcOZgIj8-exEb8mg5-39" value="main线程" style="text;html=1;strokeColor=none;fillColor=none;align=center;verticalAlign=middle;whiteSpace=wrap;rounded=0;fontSize=12;" vertex="1" parent="1">
          <mxGeometry x="204.81" y="-15" width="55" height="20" as="geometry" />
        </mxCell>
        <mxCell id="5fxkcOZgIj8-exEb8mg5-46" style="edgeStyle=orthogonalEdgeStyle;rounded=0;orthogonalLoop=1;jettySize=auto;html=1;exitX=1;exitY=0.5;exitDx=0;exitDy=0;entryX=0;entryY=0.5;entryDx=0;entryDy=0;fontSize=12;" edge="1" parent="1" source="5fxkcOZgIj8-exEb8mg5-41" target="5fxkcOZgIj8-exEb8mg5-44">
          <mxGeometry relative="1" as="geometry" />
        </mxCell>
        <mxCell id="5fxkcOZgIj8-exEb8mg5-41" value="请求" style="rounded=1;whiteSpace=wrap;html=1;fontSize=12;fillColor=#e1d5e7;strokeColor=#9673a6;" vertex="1" parent="1">
          <mxGeometry x="24.81" y="40" width="100" height="30" as="geometry" />
        </mxCell>
        <mxCell id="5fxkcOZgIj8-exEb8mg5-47" style="edgeStyle=orthogonalEdgeStyle;rounded=0;orthogonalLoop=1;jettySize=auto;html=1;exitX=1;exitY=0.5;exitDx=0;exitDy=0;fontSize=12;" edge="1" parent="1" source="5fxkcOZgIj8-exEb8mg5-42" target="5fxkcOZgIj8-exEb8mg5-44">
          <mxGeometry relative="1" as="geometry" />
        </mxCell>
        <mxCell id="5fxkcOZgIj8-exEb8mg5-42" value="请求" style="rounded=1;whiteSpace=wrap;html=1;fontSize=12;fillColor=#e1d5e7;strokeColor=#9673a6;" vertex="1" parent="1">
          <mxGeometry x="24.81" y="80" width="100" height="30" as="geometry" />
        </mxCell>
        <mxCell id="5fxkcOZgIj8-exEb8mg5-45" style="edgeStyle=orthogonalEdgeStyle;rounded=0;orthogonalLoop=1;jettySize=auto;html=1;exitX=1;exitY=0.5;exitDx=0;exitDy=0;fontSize=12;" edge="1" parent="1" source="5fxkcOZgIj8-exEb8mg5-43" target="5fxkcOZgIj8-exEb8mg5-44">
          <mxGeometry relative="1" as="geometry" />
        </mxCell>
        <mxCell id="5fxkcOZgIj8-exEb8mg5-43" value="请求" style="rounded=1;whiteSpace=wrap;html=1;fontSize=12;fillColor=#e1d5e7;strokeColor=#9673a6;" vertex="1" parent="1">
          <mxGeometry x="24.81" width="100" height="30" as="geometry" />
        </mxCell>
        <mxCell id="5fxkcOZgIj8-exEb8mg5-44" value="&lt;span style=&quot;font-size: 14px&quot;&gt;while&amp;nbsp;&lt;/span&gt;&lt;br style=&quot;font-size: 14px&quot;&gt;&lt;span style=&quot;font-size: 14px&quot;&gt;{&lt;/span&gt;&lt;br style=&quot;font-size: 14px&quot;&gt;&lt;span style=&quot;font-size: 14px&quot;&gt;&amp;nbsp; poll/select&lt;/span&gt;&lt;br style=&quot;font-size: 14px&quot;&gt;&lt;span style=&quot;font-size: 14px&quot;&gt;accept&lt;/span&gt;&lt;br style=&quot;font-size: 14px&quot;&gt;&lt;span style=&quot;font-size: 14px&quot;&gt;}&lt;/span&gt;" style="rounded=1;whiteSpace=wrap;html=1;fontSize=12;fillColor=#d5e8d4;strokeColor=#82b366;" vertex="1" parent="1">
          <mxGeometry x="172.31" y="5" width="120" height="100" as="geometry" />
        </mxCell>
        <mxCell id="5fxkcOZgIj8-exEb8mg5-70" value="" style="group;fontSize=12;" vertex="1" connectable="0" parent="1">
          <mxGeometry x="320" y="627" width="92.49999999999999" height="97" as="geometry" />
        </mxCell>
        <mxCell id="5fxkcOZgIj8-exEb8mg5-89" value="" style="rounded=0;whiteSpace=wrap;html=1;fontSize=12;" vertex="1" parent="5fxkcOZgIj8-exEb8mg5-70">
          <mxGeometry x="-18.29000000000002" y="-17" width="110.79" height="114" as="geometry" />
        </mxCell>
        <mxCell id="5fxkcOZgIj8-exEb8mg5-67" value="InnoDB" style="rounded=0;whiteSpace=wrap;html=1;fontSize=14;fillColor=#ffe6cc;strokeColor=#d79b00;" vertex="1" parent="5fxkcOZgIj8-exEb8mg5-70">
          <mxGeometry x="-2.89" width="80" height="22.857142857142854" as="geometry" />
        </mxCell>
        <mxCell id="5fxkcOZgIj8-exEb8mg5-68" value="MyISAM" style="rounded=0;whiteSpace=wrap;html=1;fontSize=14;fillColor=#ffe6cc;strokeColor=#d79b00;" vertex="1" parent="5fxkcOZgIj8-exEb8mg5-70">
          <mxGeometry x="-2.89" y="28.57" width="80" height="21.43" as="geometry" />
        </mxCell>
        <mxCell id="5fxkcOZgIj8-exEb8mg5-69" value="..." style="rounded=0;whiteSpace=wrap;html=1;fontSize=14;fillColor=#ffe6cc;strokeColor=#d79b00;" vertex="1" parent="5fxkcOZgIj8-exEb8mg5-70">
          <mxGeometry x="-2.89" y="57.14285714285714" width="80" height="22.857142857142854" as="geometry" />
        </mxCell>
        <mxCell id="5fxkcOZgIj8-exEb8mg5-104" style="edgeStyle=orthogonalEdgeStyle;rounded=0;orthogonalLoop=1;jettySize=auto;html=1;exitX=1;exitY=0.5;exitDx=0;exitDy=0;fontSize=12;" edge="1" parent="1" source="5fxkcOZgIj8-exEb8mg5-3" target="5fxkcOZgIj8-exEb8mg5-73">
          <mxGeometry relative="1" as="geometry" />
        </mxCell>
        <mxCell id="5fxkcOZgIj8-exEb8mg5-3" value="客户端" style="rounded=0;whiteSpace=wrap;html=1;fontSize=14;fillColor=#e1d5e7;strokeColor=#9673a6;" vertex="1" parent="1">
          <mxGeometry y="274.1666666666667" width="117.23684210526316" height="48.33333333333333" as="geometry" />
        </mxCell>
        <mxCell id="5fxkcOZgIj8-exEb8mg5-75" style="edgeStyle=orthogonalEdgeStyle;rounded=0;orthogonalLoop=1;jettySize=auto;html=1;exitX=0;exitY=0.75;exitDx=0;exitDy=0;fontSize=15;" edge="1" parent="1" source="5fxkcOZgIj8-exEb8mg5-51">
          <mxGeometry relative="1" as="geometry">
            <mxPoint x="310" y="310" as="targetPoint" />
          </mxGeometry>
        </mxCell>
        <mxCell id="5fxkcOZgIj8-exEb8mg5-106" style="edgeStyle=orthogonalEdgeStyle;rounded=0;orthogonalLoop=1;jettySize=auto;html=1;exitX=1;exitY=0.5;exitDx=0;exitDy=0;fontSize=12;" edge="1" parent="1" source="5fxkcOZgIj8-exEb8mg5-51" target="5fxkcOZgIj8-exEb8mg5-53">
          <mxGeometry relative="1" as="geometry" />
        </mxCell>
        <mxCell id="5fxkcOZgIj8-exEb8mg5-51" value="查询缓存" style="rounded=0;whiteSpace=wrap;html=1;fontSize=15;fillColor=#dae8fc;strokeColor=#6c8ebf;" vertex="1" parent="1">
          <mxGeometry x="432.4013157894737" y="274.1666666666667" width="103.91447368421053" height="48.33333333333333" as="geometry" />
        </mxCell>
        <mxCell id="5fxkcOZgIj8-exEb8mg5-53" value="解析器" style="rounded=0;whiteSpace=wrap;html=1;fontSize=15;fillColor=#dae8fc;strokeColor=#6c8ebf;" vertex="1" parent="1">
          <mxGeometry x="602.9276315789474" y="274.1666666666667" width="103.91447368421053" height="48.33333333333333" as="geometry" />
        </mxCell>
        <mxCell id="5fxkcOZgIj8-exEb8mg5-54" value="预处理器" style="rounded=0;whiteSpace=wrap;html=1;fontSize=15;fillColor=#dae8fc;strokeColor=#6c8ebf;" vertex="1" parent="1">
          <mxGeometry x="813.421052631579" y="382.91666666666663" width="106.57894736842107" height="48.33333333333333" as="geometry" />
        </mxCell>
        <mxCell id="5fxkcOZgIj8-exEb8mg5-58" style="edgeStyle=orthogonalEdgeStyle;rounded=0;orthogonalLoop=1;jettySize=auto;html=1;exitX=0.5;exitY=0;exitDx=0;exitDy=0;fontSize=15;" edge="1" parent="1" source="5fxkcOZgIj8-exEb8mg5-55" target="5fxkcOZgIj8-exEb8mg5-54">
          <mxGeometry relative="1" as="geometry">
            <Array as="points">
              <mxPoint x="866.7105263157896" y="352.7083333333333" />
              <mxPoint x="866.7105263157896" y="352.7083333333333" />
            </Array>
          </mxGeometry>
        </mxCell>
        <mxCell id="5fxkcOZgIj8-exEb8mg5-55" value="解析树" style="shape=document;whiteSpace=wrap;html=1;boundedLbl=1;fontSize=15;fillColor=#d5e8d4;strokeColor=#82b366;" vertex="1" parent="1">
          <mxGeometry x="813.421052631579" y="274.1666666666667" width="106.57894736842107" height="48.33333333333333" as="geometry" />
        </mxCell>
        <mxCell id="5fxkcOZgIj8-exEb8mg5-57" style="edgeStyle=orthogonalEdgeStyle;rounded=0;orthogonalLoop=1;jettySize=auto;html=1;exitX=1;exitY=0.5;exitDx=0;exitDy=0;fontSize=15;" edge="1" parent="1" source="5fxkcOZgIj8-exEb8mg5-53" target="5fxkcOZgIj8-exEb8mg5-55">
          <mxGeometry relative="1" as="geometry" />
        </mxCell>
        <mxCell id="5fxkcOZgIj8-exEb8mg5-72" style="edgeStyle=orthogonalEdgeStyle;rounded=0;orthogonalLoop=1;jettySize=auto;html=1;exitX=0.5;exitY=0;exitDx=0;exitDy=0;fontSize=15;" edge="1" parent="1" source="5fxkcOZgIj8-exEb8mg5-56" target="5fxkcOZgIj8-exEb8mg5-60">
          <mxGeometry relative="1" as="geometry">
            <Array as="points">
              <mxPoint x="655" y="383" />
            </Array>
          </mxGeometry>
        </mxCell>
        <mxCell id="5fxkcOZgIj8-exEb8mg5-56" value="预处理解析树" style="shape=document;whiteSpace=wrap;html=1;boundedLbl=1;fontSize=15;fillColor=#d5e8d4;strokeColor=#82b366;" vertex="1" parent="1">
          <mxGeometry x="602.9276315789474" y="382.91666666666663" width="106.57894736842107" height="48.33333333333333" as="geometry" />
        </mxCell>
        <mxCell id="5fxkcOZgIj8-exEb8mg5-59" style="edgeStyle=orthogonalEdgeStyle;rounded=0;orthogonalLoop=1;jettySize=auto;html=1;exitX=0;exitY=0.5;exitDx=0;exitDy=0;fontSize=15;" edge="1" parent="1" source="5fxkcOZgIj8-exEb8mg5-54" target="5fxkcOZgIj8-exEb8mg5-56">
          <mxGeometry relative="1" as="geometry" />
        </mxCell>
        <mxCell id="5fxkcOZgIj8-exEb8mg5-60" value="查询优化器" style="rounded=0;whiteSpace=wrap;html=1;fontSize=15;fillColor=#dae8fc;strokeColor=#6c8ebf;" vertex="1" parent="1">
          <mxGeometry x="600.265394736842" y="491.66666666666663" width="106.57894736842107" height="48.33333333333333" as="geometry" />
        </mxCell>
        <mxCell id="5fxkcOZgIj8-exEb8mg5-61" value="执行计划" style="shape=document;whiteSpace=wrap;html=1;boundedLbl=1;fontSize=15;fillColor=#d5e8d4;strokeColor=#82b366;" vertex="1" parent="1">
          <mxGeometry x="429.74026315789473" y="491.66666666666663" width="106.57894736842107" height="48.33333333333333" as="geometry" />
        </mxCell>
        <mxCell id="5fxkcOZgIj8-exEb8mg5-63" style="edgeStyle=orthogonalEdgeStyle;rounded=0;orthogonalLoop=1;jettySize=auto;html=1;exitX=0;exitY=0.5;exitDx=0;exitDy=0;entryX=1;entryY=0.5;entryDx=0;entryDy=0;fontSize=15;" edge="1" parent="1" source="5fxkcOZgIj8-exEb8mg5-60" target="5fxkcOZgIj8-exEb8mg5-61">
          <mxGeometry relative="1" as="geometry" />
        </mxCell>
        <mxCell id="5fxkcOZgIj8-exEb8mg5-82" style="edgeStyle=orthogonalEdgeStyle;rounded=0;orthogonalLoop=1;jettySize=auto;html=1;exitX=0.5;exitY=0;exitDx=0;exitDy=0;fontSize=12;" edge="1" parent="1" source="5fxkcOZgIj8-exEb8mg5-62" target="5fxkcOZgIj8-exEb8mg5-81">
          <mxGeometry relative="1" as="geometry">
            <Array as="points">
              <mxPoint x="357" y="450" />
              <mxPoint x="237" y="450" />
            </Array>
          </mxGeometry>
        </mxCell>
        <mxCell id="5fxkcOZgIj8-exEb8mg5-83" style="edgeStyle=orthogonalEdgeStyle;rounded=0;orthogonalLoop=1;jettySize=auto;html=1;exitX=0.5;exitY=0;exitDx=0;exitDy=0;fontSize=12;" edge="1" parent="1" source="5fxkcOZgIj8-exEb8mg5-62" target="5fxkcOZgIj8-exEb8mg5-79">
          <mxGeometry relative="1" as="geometry">
            <Array as="points">
              <mxPoint x="357" y="450" />
              <mxPoint x="484" y="450" />
            </Array>
          </mxGeometry>
        </mxCell>
        <mxCell id="5fxkcOZgIj8-exEb8mg5-90" style="edgeStyle=orthogonalEdgeStyle;rounded=0;orthogonalLoop=1;jettySize=auto;html=1;exitX=0.5;exitY=1;exitDx=0;exitDy=0;fontSize=12;" edge="1" parent="1" source="5fxkcOZgIj8-exEb8mg5-62" target="5fxkcOZgIj8-exEb8mg5-89">
          <mxGeometry relative="1" as="geometry" />
        </mxCell>
        <mxCell id="5fxkcOZgIj8-exEb8mg5-62" value="执行引擎" style="rounded=0;whiteSpace=wrap;html=1;fontSize=15;fillColor=#dae8fc;strokeColor=#6c8ebf;" vertex="1" parent="1">
          <mxGeometry x="309.21" y="491.67" width="95.79" height="48.33" as="geometry" />
        </mxCell>
        <mxCell id="5fxkcOZgIj8-exEb8mg5-64" style="edgeStyle=orthogonalEdgeStyle;rounded=0;orthogonalLoop=1;jettySize=auto;html=1;exitX=0;exitY=0.5;exitDx=0;exitDy=0;fontSize=15;" edge="1" parent="1" source="5fxkcOZgIj8-exEb8mg5-61" target="5fxkcOZgIj8-exEb8mg5-62">
          <mxGeometry relative="1" as="geometry" />
        </mxCell>
        <mxCell id="5fxkcOZgIj8-exEb8mg5-73" value="网络模块" style="rounded=0;whiteSpace=wrap;html=1;fontSize=15;fillColor=#dae8fc;strokeColor=#6c8ebf;" vertex="1" parent="1">
          <mxGeometry x="191.27" y="274.17" width="91.96" height="48.33" as="geometry" />
        </mxCell>
        <mxCell id="5fxkcOZgIj8-exEb8mg5-74" value="" style="endArrow=classic;html=1;fontSize=15;entryX=0;entryY=0.25;entryDx=0;entryDy=0;" edge="1" parent="1" target="5fxkcOZgIj8-exEb8mg5-51">
          <mxGeometry width="50" height="50" relative="1" as="geometry">
            <mxPoint x="310" y="286" as="sourcePoint" />
            <mxPoint x="370" y="310" as="targetPoint" />
          </mxGeometry>
        </mxCell>
        <mxCell id="5fxkcOZgIj8-exEb8mg5-80" style="edgeStyle=orthogonalEdgeStyle;rounded=0;orthogonalLoop=1;jettySize=auto;html=1;exitX=0.5;exitY=0;exitDx=0;exitDy=0;entryX=0.5;entryY=1;entryDx=0;entryDy=0;fontSize=12;" edge="1" parent="1" source="5fxkcOZgIj8-exEb8mg5-79" target="5fxkcOZgIj8-exEb8mg5-51">
          <mxGeometry relative="1" as="geometry" />
        </mxCell>
        <mxCell id="5fxkcOZgIj8-exEb8mg5-79" value="缓存&lt;br&gt;结果" style="shape=document;whiteSpace=wrap;html=1;boundedLbl=1;fontSize=12;fillColor=#d5e8d4;strokeColor=#82b366;" vertex="1" parent="1">
          <mxGeometry x="464.36" y="370" width="40" height="40" as="geometry" />
        </mxCell>
        <mxCell id="5fxkcOZgIj8-exEb8mg5-84" style="edgeStyle=orthogonalEdgeStyle;rounded=0;orthogonalLoop=1;jettySize=auto;html=1;exitX=0.5;exitY=0;exitDx=0;exitDy=0;fontSize=12;" edge="1" parent="1" source="5fxkcOZgIj8-exEb8mg5-81" target="5fxkcOZgIj8-exEb8mg5-73">
          <mxGeometry relative="1" as="geometry">
            <mxPoint x="310" y="310" as="targetPoint" />
          </mxGeometry>
        </mxCell>
        <mxCell id="5fxkcOZgIj8-exEb8mg5-81" value="返回&lt;br&gt;结果" style="shape=document;whiteSpace=wrap;html=1;boundedLbl=1;fontSize=12;fillColor=#d5e8d4;strokeColor=#82b366;" vertex="1" parent="1">
          <mxGeometry x="217.25" y="382.92" width="40" height="40" as="geometry" />
        </mxCell>
        <mxCell id="5fxkcOZgIj8-exEb8mg5-85" value="SQL" style="text;html=1;strokeColor=none;fillColor=none;align=center;verticalAlign=middle;whiteSpace=wrap;rounded=0;fontSize=12;" vertex="1" parent="1">
          <mxGeometry x="350" y="268" width="40" height="20" as="geometry" />
        </mxCell>
        <mxCell id="5fxkcOZgIj8-exEb8mg5-86" value="返回结果" style="text;html=1;strokeColor=none;fillColor=none;align=center;verticalAlign=middle;whiteSpace=wrap;rounded=0;fontSize=12;" vertex="1" parent="1">
          <mxGeometry x="340" y="310" width="60" height="20" as="geometry" />
        </mxCell>
        <mxCell id="5fxkcOZgIj8-exEb8mg5-87" value="语法解析" style="text;html=1;strokeColor=none;fillColor=none;align=center;verticalAlign=middle;whiteSpace=wrap;rounded=0;fontSize=12;" vertex="1" parent="1">
          <mxGeometry x="730" y="274.17" width="60" height="20" as="geometry" />
        </mxCell>
        <mxCell id="5fxkcOZgIj8-exEb8mg5-91" value="磁盘" style="shape=datastore;whiteSpace=wrap;html=1;fontSize=12;fillColor=#dae8fc;strokeColor=#6c8ebf;" vertex="1" parent="1">
          <mxGeometry x="473.29" y="637" width="60" height="60" as="geometry" />
        </mxCell>
        <mxCell id="5fxkcOZgIj8-exEb8mg5-92" style="edgeStyle=orthogonalEdgeStyle;rounded=0;orthogonalLoop=1;jettySize=auto;html=1;exitX=1;exitY=0.5;exitDx=0;exitDy=0;fontSize=12;" edge="1" parent="1" source="5fxkcOZgIj8-exEb8mg5-89" target="5fxkcOZgIj8-exEb8mg5-91">
          <mxGeometry relative="1" as="geometry" />
        </mxCell>
        <mxCell id="5fxkcOZgIj8-exEb8mg5-100" value="" style="endArrow=none;html=1;fontSize=12;exitX=1;exitY=0;exitDx=0;exitDy=0;entryX=0.75;entryY=1;entryDx=0;entryDy=0;dashed=1;" edge="1" parent="1" source="5fxkcOZgIj8-exEb8mg5-73" target="5fxkcOZgIj8-exEb8mg5-103">
          <mxGeometry width="50" height="50" relative="1" as="geometry">
            <mxPoint x="240" y="230" as="sourcePoint" />
            <mxPoint x="290" y="180" as="targetPoint" />
          </mxGeometry>
        </mxCell>
        <mxCell id="5fxkcOZgIj8-exEb8mg5-101" value="" style="endArrow=none;html=1;fontSize=12;exitX=0;exitY=0;exitDx=0;exitDy=0;entryX=0.25;entryY=1;entryDx=0;entryDy=0;dashed=1;" edge="1" parent="1" source="5fxkcOZgIj8-exEb8mg5-73" target="5fxkcOZgIj8-exEb8mg5-103">
          <mxGeometry width="50" height="50" relative="1" as="geometry">
            <mxPoint x="190" y="220" as="sourcePoint" />
            <mxPoint y="160" as="targetPoint" />
          </mxGeometry>
        </mxCell>
        <mxCell id="5fxkcOZgIj8-exEb8mg5-105" value="存储引擎" style="text;html=1;strokeColor=none;fillColor=none;align=center;verticalAlign=middle;whiteSpace=wrap;rounded=0;dashed=1;fontSize=12;" vertex="1" parent="1">
          <mxGeometry x="880" y="660" width="50" height="20" as="geometry" />
        </mxCell>
      </root>
    </mxGraphModel>
  </diagram>
</mxfile>
